/* XPM */
static char *_56ee34693a244f5c0febf4d4d05b4ecd1pA1p59IpNAvxxb[] = {
/* columns rows colors chars-per-pixel */
"96 96 80 1 ",
"  c #33541C",
". c #36591E",
"X c #385C1F",
"o c #3B5F20",
"O c #3D6221",
"+ c #446E25",
"@ c #467327",
"# c #487327",
"$ c #4B7629",
"% c #4E7A2A",
"& c #507D2B",
"* c #4E802B",
"= c #53852D",
"- c #558B2F",
"; c #578D30",
": c #598E31",
"> c #5E9433",
", c #619635",
"< c #669D37",
"1 c #689E37",
"2 c #679E38",
"3 c #689F38",
"4 c #69A03A",
"5 c #6CA13D",
"6 c #6CA23D",
"7 c #6CA13E",
"8 c #6CA23E",
"9 c #6DA23E",
"0 c #6DA23F",
"q c #648A46",
"w c #6FA341",
"e c #6FA441",
"r c #70A441",
"t c #71A443",
"y c #71A544",
"u c #71A545",
"i c #72A545",
"p c #73A646",
"a c #73A647",
"s c #74A747",
"d c #75A749",
"f c #76A749",
"g c #75A849",
"h c #77A84A",
"j c #77A84B",
"k c #77A94B",
"l c #78A94B",
"z c #7CAB52",
"x c #7BAC52",
"c c #7CAC53",
"v c #7EAD55",
"b c #7FAD57",
"n c #7FAE56",
"m c #7FAE57",
"M c #81AF5A",
"N c #89B35D",
"B c #89B366",
"V c #8BB564",
"C c #8BB567",
"Z c #8BB667",
"A c #8CB664",
"S c #8CB667",
"D c #8BB668",
"F c #8CB668",
"G c #8CB768",
"H c #90B96D",
"J c #90B96E",
"K c #93BB72",
"L c #FADD57",
"P c #FADE57",
"I c #A7C786",
"U c #A8C786",
"Y c #A8C887",
"T c #BBD291",
"R c #D8DC90",
"E c #F4E68E",
"W c #F4E78E",
"Q c #D9E7C2",
"! c #D9E7C3",
"~ c #EDEFC5",
/* pixels */
"1111111223133331<3333<33331333333333<3333333333334444114<4114414333333333333333333333333111114<4",
"31wIV31233333333333333333333333333333333<333<,,<,,41<44<114<111133333333333333333333333311144141",
"1wN~Td41333333333333333333333333<<<333333333<:,<;>114<4<4114114133343333333333333333333311<41<41",
"1I~LEQg133333333333333333333333<<:,3333333333<>:<11414<4<44144<4333333333333333333333>;3114114<4",
"1VTERIe1333333333333333333<,,33;%,<33333<33333<,1144<44<<4<4<<41333333333333333333333;o34<1414<4",
"1<aQI<143333333333<<333333<:,<<&o,<3333333333333144<<444<<414<<<223333333333333433333*O<144<1<44",
"114ge121333333333<:,333333<<,:<<,<333333333333331444444>;1<44>;;>2333333333333343343;>>3411<414<",
"1111124133333333,>><33333333,,<33,,33333333333334<<44<<:;><<>;-@-3333333333333xe3343O;33<<44<444",
"<333333333333333,:<33333333<333,,;,33333333333333333314>;->1-;=o*3333333411446An4442O*4446444<44",
"3333333333333333<<<3333333<:,33&o,<333333333333333333111<;>1;OO;<32333331141444nZ422>244xZ62<44<",
"333333333333333333333333331,=&<;&<3333333333333333333311<O;1-=*<33333233144141<xHe22xg4xxx444<24",
"3333333333333333333333333333&o,3333333333333333333333311>O=1;>4<233322<<11<4144xZ646Dx6Zx>444<44",
"3333333333313333333333333333>=<3333333333333333333334<411>>441<;>31<<;;;1111114464xGu4444424244<",
"3,,3323333333333333333333333,>1333333333333333333333111144414<<@*<<<>;;;<111411433xH6442444442<4",
"<>:2212333333333333333333333333333333333333333333333<441144144>OO><>;*;;1333144122xG62424444<44<",
";><3>:<3333333333333<33333<33333<333<333333333333333411411<4<4<<;;<>-o*2333314<142464444444;-<<4",
"->33=#,32<2<333333333333112333333333333333331><33333221333333333-O4;O*-44<4<1111114141<43<3-O<22",
"=:3<&O,32ww7333333333333113gr133333333333332<;>33331233333333333*O<*O<4<<44<141144<<<41133<*O>24",
".%<:>,333VHV7333333333331<dQU<1232333333331>;<23112;>33333333333<><<>44414<4<11111<44<143332<>>2",
" $<@=31dzMMM3333333333331FTERIr223333333332<><333<>><33333333333<44<44441<4<41441141141432464O-3",
"o&,+&3<zV233333333333333<U~LE!g<23333333333331133>;33333333333332244343341141<11111144<12323>O-3",
",,<,<<33w333<3<<333333332wN~Rl333333333333332;>3313333333333333333223333<4144<;>11<4444433343>22",
"<<33aMMa33<3MMM21333333332wIB>333333333>>33<>><333333333333322333333323344114<>>><4<4<<432423333",
"3<3<vHHz333tVHVr13333333322<<<333333311;>33>;<13333<<333333112<2<33333331141<44>;<<4<44<43233333",
"3<rSM3r333MSdr33333333333333333333333>;<13311233212;>31433133>;;>3443333333333334<4141146<334333",
"333vd<<133az3<<3333333333333333333333<>1333333332<>><3122>>>2<>;>3333333333333331411<44136333333",
"333<333333<133333333333333333333333333123343<2332>;223122;;;<2<-;333232333333333414411116g333333",
"33<3333331113333331333333333333333333332333>;2334112334222>--><O*;112;>333333333<4111122YQs33333",
"33333333<333333333333333333333333331323331>>>1331333112144<>@->-@@2>>;>3333333333333114IRWTA1333",
"33333333333333333333333333333333333433332<;>3333333342411<1>oO-<*o>>;;>333333333333311sQWP~I1331",
"33333333333333333113333<33333333332222243211333333334114124>oO;<2>;*O>33333333333333334gT~N61333",
"33333333333<333331,,33,,33313<,,421141113323333333332212144<*-><2<OO*<333333333333333344GI613333",
"3332111241<44<<<2<;><2>;<23112;>1112447444444<4<4>44<4<4<4114411>;O*3233333333333333333311333333",
"33331122114<<444222>;<2<;>31>;1142421xF444444<4444444<4<1<4<111121><1333333333333333333333323333",
"332311>21><<<4<42222>><<;>1>>>1113334rvMy44sk444<<4<<44<4114331133333133333333333333333333333333",
"332331;>1;>4<44442222;>2>>1;>1111233447Vx46nV44444<441141441311133333133333333333333333333333333",
"3333131>;<144<<<<1142322<1<;>1114<<4<<4444An41141411414<3333333311131414333333333333333333331114",
"33331132>1<<4<441411333212<>>411444<444444xy41414141<4113333311311331<4<333333333333333333331111",
"33331114414144421124333233<241<4<444<44444<4414111444114333346g4111441<4333333333333333331331141",
"3333111114<4<42311113333333211414<<4446Dk<41411114<1<44<33343YQg1111144<3333333333333333>;133114",
"32333222333333423333333314<4<41444<4<<4lxx44<41<333433333334YRWTA444<4<43333433433334242>>>21411",
"131322224433332233333333144<4<14<44<4<4<MG644144333<3333333sQWP~I422<4<4333346333333324242;>144<",
"131;;>2233333332333333334<14<4<1<411<44<MG644141334332333443kT~N443342423332xZ66442244244<<441<4",
"331>>>>>><32242433333333<41<4<1444<14<44sx44<<4<332342334YA14GY8233324243336sxxs448x324324<414<<",
"<<<<22;-;<333332333333334114141141<4414<444<4<<<24223336N~T6431133333323333314Ax24nZ4444<4<441<4",
";;;;>22>;<23333333363333<44<111<414<4<4<44<<44<>4<24333I~PWQg43133333244333343644Gx64344<414<44<",
">>>;->2;*;<232>26nxs1333411141>41>1141444<44<4-O<442334ATWRI613333333332233344444xe33gx4411<44<4",
"2<4;-->-o;;22>>6nHGx133311441<->1->1411144<4<4*O><<44343gQI34133333333332333446444634xG64<<4114<",
"4222*.=>>o*4-->Nx88444<4444<111>;<133333333332<>;<<411134s4444134114<441141434Gx2434Gn3333333333",
"2422*X*><*->@*>x6<44444<4<<4111<>13333333333333<O;4<113344134414<44<41114<<<34xxx433xs3333333333",
"<<4<*O;>44>*o*4444<44444<44<4114333333333333333>O*<41141133333334<<411114<4<334nG423323333333333",
"44422>44>>OO;>44>-->44<<4444<41<3333333333333331><4<11143333333311411111<4<4334nHe23333333333333",
"14<<1446n>>q4444>>-;><44<441141433333333333333334441141133133333414111414114111ex444333333333333",
"4<<<<14kGynG444424---223<<14414<3333333333333333<4<1<44133333311<1<<441<<41411314424333<<3333333",
"<>;;>144sGn64>-13>o*;342->4<11443333333333333333441111413333422;;;;>14<4441111132344333;>3333331",
"4<>;>><14x844>>>2>.O-23;->4414<133333333333333334<1141<43311222>;--;><4<111411333422333>>>233331",
"<4<==-<4444<44<*;>OO;4>;;>3333333333<3331<113333<411114<33333333>-*--<14<<<3333333333333>;13332<",
"44,o@:<44-><4<>O@;3*O>>*o*3331333331;>33>;<13333114411<<333333334>O@;<44;;;;>33333333333<<3333>;",
"><,X@-<,>->444>OO>4;*;=*O>3333333331>>>32>>13333414111<43331>>>><<*@@><;;*O><33333333333333333<>",
"*>,o@=<>==>444>O@;343-OO>333333333333>;213;>33331414114<3331----;44*O<>--Oo<333333323333333333<3",
".@>>$o,>=X%4444>>444>o*133333333313333213311333311114<44<44<2*o-->4>>2>=o*><33333333333311133333",
" O-4-%>=+$:6ke4x6444<*;33333333332<>3333333333334111224<44<42;*o@O><44>>=-3<333333333333<>133333",
"X@:44<=@O,46GnyGk44333333333333333>;<333333333333311<4244<4<24>oXO->44223433333333333333>;133333",
">><44,O$,4<46nGy4323433333333333333<;>333333333333314242<432433<>><24243233333333333333322;>3333",
"4444<>%:<41<<6g444414<<4<44114114141><113133333222224<4<141<4<114<<411414<1411122222333331><3333",
"44<44444411444<144114<4<4<144114111141111333332<2224<4<41414144<<4411441144114111211333333332333",
"4444444<1441441411114444<4<1<441<4<41111>;3143>;;<2214414<1444144<<411<111<4441>;2>;133333333333",
"4<4<4<4<<4<4444<4411<4<>1<><1141414<1411>;>23>;-O;2411411411<14<<44<44144<4<111<>>>>133333333333",
"41441141141114<4111<44>-<>;<41144<<44<41>;-><-;*o*33411111444<4<3333111124<<34<41;>3333333333333",
"1<44411414411<41<441411<->4<1441<44<14<12<-><-Oo><33111111111411333311112244<2321111333333333333",
"41<41>1411144<4144441114><<44<<441<414<42<*-<;-*<<33331111<414143333111><24242332111333333333333",
"41<4-=114<4114<44<<4144<14411411<4114<411>o*2;><<<23331111114<41333311>;422424422111333333333333",
"1411%o,41<4<<<443333333311<41411111111144<><4<<<;>3444--:<<4114431333;><222333333333333133333333",
"4<<4-%>444<4444<GY633333<44<4<1414111414141<<4<1O->4>>--:4<4411<331<>><3323333333333333133333333",
"<44<44-:4<4<444sT~N4333344<4411411<4441114144<1>o*;3>-=-:<<41441333>;333333333333333<<<233333333",
"41144>o*14<444gQWP~Y3333<<4<11414<411114414<414<<;;3>=.*<<41141<3331233333333<;>333<;;;<33333123",
"11411<*-144<4<6IRWTA33333333411141414<4414144<4<3-@4-O*-4114<4143333333332633<;;>2<>---<33333333",
"<411<44411<444<<YQg36g463333<4111<<4<4<<<11111<<2*O>=O>44141114<33331<3336s63<;;;<>;--;<33333333",
"41144114144414446s63eQY3333311;>444114<->1411;;;<>>23>44114<4<44333<<;>3<IQe243>;<>-;><333333333",
"1441<414s44414nns21ATWRY433111>>><1<41<@-><<>;*@>344244<4114<411333<>><4IRWTm44>-<>-><3333333333",
"4242232xGs446nHHx33Y~PWQg643333>;<1141>@O-<>--+O>33333331141<4<414<>-44yQWP~U14>;<>;<33333333333",
"4<424334sGxeGn664336N~Ts43333332411441<<*O>>*o@>3333333344<44<4111-><444sT~N411<<<22<33333333333",
"4<3422334xxnKn6xxx436Ym3433342>241111141*X>>;*;43333333314<1<44141><41144NU444113313333333333333",
"<4<4<43344xHKxeGGZ63346343332<;><41114<4*O<>;<<<13333333114<4<<44<4114414411114<3333333333333333",
"44<2444344444nGe663333334<4<4<4>;141141<><4<<4>-;>133333411114<11<41114144114<44333333<<33333333",
"<<>>>444336346x446433333<4<424<<>1114<4444>>><<;;>3333331411114114<441144<<4111133331<>><3333333",
"<>-;>3332433111144333333414<42<2114<<4414<--;<<<;;33331133111111<44<1441144<<41433332>;-><33333<",
";--<<333332314144333333341<4242>;<1411<44<4;-;><O*;<33;>311111144141<41141144<41333321<;;;<333>;",
"--;<4<44141141411141<4<<><4<44<>>><4<44<4<4<-**>-*O33>;>4114<41111<41411<4114<4<4444>,4>;;*-23>;",
"---<444<14144111<4114<4<;>4<<444<;>41111<4<<>OO><*O><*;><44<114<<44<4<1141141414<4<<:>,4;*o*2>;*",
".*>444<4411114<;>414<4<<o*<4<444<<<1411424<4>XO;<3>>@O>2411441144<4<14>;<411114<44>:<%O,*o;3>oX.",
"*-4>;><4<4114<1>>><411<<*-><4<444141144<4244<*-><>>O@*>3<411<44<<4<44>>><14441<44<,,<:$%**<;**@*",
"><<-;;4<111141<4>;<441144;;<<<4<41144<41<<444<4<3>-O*33311411441111<<;>114<1<44<<4<<14>O$44$o>4,",
"X@;<1<<41411<4114<41<441<*O><4<4<44114<144<433243<<>23434<1441<4111>;<414<1441144<<4414>>4->>4*X",
"*->1144<4<<44<<4411411144;*<<44<11<44<1441<43433343232421441<44<131<><14144<<44111414<<444>111:%",
"<411414411414141141<4<4<411141414<414114<4<<33333223232341114<<433141411<41411114414<444441144<4"
};
