/* XPM */
static char *result[] = {
/* columns rows colors chars-per-pixel */
"96 96 81 1 ",
"  c black",
". c #291906",
"X c #322000",
"o c #322418",
"O c #252525",
"+ c gray15",
"@ c #3A3A3A",
"# c gray23",
"$ c #3F3F3F",
"% c #403120",
"& c #4C3B21",
"* c #524024",
"= c #77562C",
"- c #604D31",
"; c #715A32",
": c #765D34",
"> c gray25",
", c #414141",
"< c #585858",
"1 c gray35",
"2 c #796C57",
"3 c DimGray",
"4 c #6A6A6A",
"5 c gray46",
"6 c #D47410",
"7 c #D87615",
"8 c #8A7046",
"9 c #957C4B",
"0 c #80735B",
"q c #AE7F40",
"w c #D7811B",
"e c #D9841F",
"r c #E69831",
"t c #ECA138",
"y c #EEA73B",
"u c #A08046",
"i c #AB8949",
"p c #8A8378",
"a c #BA9B62",
"s c #C5A15D",
"d c #F6B043",
"f c #FFBF4D",
"g c #EAB95A",
"h c #F2B454",
"j c #FFC14B",
"k c #FEC14C",
"l c #FFC64E",
"z c #F7C151",
"x c #FFC451",
"c c #FEC659",
"v c #FAC662",
"b c #F9C865",
"n c #F8C967",
"m c #F2C56E",
"M c #E6C175",
"N c #F9D179",
"B c #838383",
"V c #848484",
"C c gray52",
"Z c gray53",
"A c #888888",
"S c #898989",
"D c #8D8D8D",
"F c #8E8E8E",
"G c gray56",
"H c #999184",
"J c #9D9D9D",
"K c #AFAAA3",
"L c #B1ACA4",
"P c #F5D685",
"I c #F6D784",
"U c #F8DF93",
"Y c #F7DD9B",
"T c #FBE19A",
"R c #F9E3A4",
"E c #FFF2B6",
"W c #FFF2BB",
"Q c #FFF3C0",
"! c #FFF3C8",
"~ c #FEF2CB",
"^ c None",
/* pixels */
"^^^^^^^^^^^^^^^^^^^^^^^^^^^^^^^^^^^^^^^^^^^^^^^^^^^^^^^^^^^^^^^^^^^^^^^^^^^^^^^^^^^^^^^^^^^^^^^^",
"^^^^^^^^^^^^^^^^^^^^^^^^^^^^^^^^^^^^^^^^^^^^^^^^^^^^^^^^^^^^^^^^^^^^^^^^^^^^^^^^^^^^^^^^^^^^^^^^",
"^^^^^^^^^^^^^^^^^^^^^^^^^^^^^^^^^^^^^^^^^^^^^^^^^^^^^^^^^^^^^^^^^^^^^^^^^^^^^^^^^^^^^^^^^^^^^^^^",
"^^^^^^^^^^^^^^^^^^^^^^^^^^^^^^^^^^^^^^^^^^^^^^^^^^^^^^^^^^^^^^^^^^^^^^^^^^^^^^^^^^^^^^^^^^^^^^^^",
"^^^^^^^^^^^^^^^^^^^^^^^^^^^^^^^^^^^^^^^^^^^^^^^^^^^^^^^^^^^^^^^^^^^^^^^^^^^^^^^^^^^^^^^^^^^^^^^^",
"^^^^^^^^^^^^^^^^^^^^^^^^^^^^^^^^^^^^^^^^^^^^^^^^^^^^^^^^^^^^^^^^^^^^^^^^^^^^^^^^^^^^^^^^^^^^^^^^",
"^^^^^^^^^^^^^^^^^^^^^^^^^^^^^^^^^^^^^^^^^^^^^^^^^^^^^^^^^^^^^^^^^^^^^^^^^^^^^^^^^^^^^^^^^^^^^^^^",
"^^^^^^^^^^^^^^^^^^^^^^^^^^^^^^^^^^^^^^^^^^^^^^^^^^^^^^^^^^^^^^^^^^^^^^^^^^^^^^^^^^^^^^^^^^^^^^^^",
"^^^^^^^^^^^^^^^^^^^^^^^^^^^^^^^^^^^^^^^^^^^^^^^^^^^^^^^^^^^^^^^^^^^^^^^^^^^^^^^^^^^^^^^^^^^^^^^^",
"^^^^^^^^^^^^^^^^^^^^^^^^^^^^^^^^^^^^^^^^^^^^^^^^^^^^^^^^^^^^^^^^^^^^^^^^^^^^^^^^^^^^^^^^^^^^^^^^",
"^^^^^^^^^^^^^^^^^^^^^^^^^^^^^^^^^^^^^^^^^^^^^^^^^^^^^^^^^^^^^^^^^^^^^^^^^^^^^^^^^^^^^^^^^^^^^^^^",
"^^^^^^^^^^^^^^^^^^^^^^^^^^^^^^^^^^^^^^^^^^^^^^^^^^^^^^^^^^^^^^^^^^^^^^^^^^^^^^^^^^^^^^^^^^^^^^^^",
"^^^^^^^^^^^^^^^^^^^^^^^^^^^^^^^^^^^^^^^^^^^^^^^^^^^^^^^^^^^^^^^^^^^^^^^^^^^^^^^^^^^^^^^^^^^^^^^^",
"^^^^^^^^^^^^^^^^^^^^^^^^^^^^^^^^^^^^^^^^^^^^^^^^^^^^^^^^^^^^^^^^^^^^^^^^^^^^^^^^^^^^^^^^^^^^^^^^",
"^^^^^^^^^^^^^^^^^^^^^^^^^^^^^^^^^^^^^^^^^^^^^^^^^^^^^^^^^^^^^^^^^^^^^^^^^^^^^^^^^^^^^^^^^^^^^^^^",
"^^^^^^^^^^^^^^^^^^^^^^^^^^^^^^^^^^^^^^^^^^^^^^^^^^^^^^^^^^^^^^^^^^^^^^^^^^^^^^^^^^^^^^^^^^^^^^^^",
"^^^^^^^^^^^^^^^^^^^^^^^^^^^^^^^^^^^^                      ^^^^^^^^^^^^^^^^^^^^^^^^^^^^^^^^^^^^^^",
"^^^^^^^^^^^^^^^^^^^^^^^^^^^^^^^^^^                         J^^^^^^^^^^^^^^^^^^^^^^^^^^^^^^^^^^^^",
"^^^^^^^^^^^^^^^^^^^^^^^^^^^^^^^^^^                         ^^^^^^^^^^^^^^^^^^^^^^^^^^^^^^^^^^^^^",
"^^^^^^^^^^^^^^^^^^^^^^^^^^^^^^^^^^                         L^^^^^^^^^^^^^^^^^^^^^^^^^^^^^^^^^^^^",
"^^^^^^^^^^^^^^^^^^^^^^^^^^<<<<<<<0sssssssssssssssssssssssss0<<<<<<<^^^^^^^^^^^^^^^^^^^^^^^^^^^^^",
"^^^^^^^^^^^^^^^^^^^^^^^^^        :cxxxxxxxxxxxxxxxxxxxxxxxc8        ^^^^^^^^^^^^^^^^^^^^^^^^^^^^",
"^^^^^^^^^^^^^^^^^^^^^^^^^        :xkkkkkkkkjjkkkkkkkjkkkkkx8        ^^^^^^^^^^^^^^^^^^^^^^^^^^^^",
"^^^^^^^^^^^^^^^^^^^^^^^^^        ;xkkkkkkkkkkkkkkkkkkkkkkkx:        ^^^^^^^^^^^^^^^^^^^^^^^^^^^^",
"^^^^^^^^^^^^^^^^^^^^^^J^K88888888qtttttttttttttttttttttttttq88888888K^J^^^^^^^^^^^^^^^^^^^^^^^^^",
"^^^^^^^^^^^^^^^^^^^^^    mcccccccd6666666666666666666666666ycccccccb    ^^^^^^^^^^^^^^^^^^^^^^^^",
"^^^^^^^^^^^^^^^^^^^^^    vjkkkkkky6777777777777777777777777ykkkkkkjv    ^^^^^^^^^^^^^^^^^^^^^^^^",
"^^^^^^^^^^^^^^^^^^^^^    vjkkjkkky6777777777777777777777776txkkjjkkv    ^^^^^^^^^^^^^^^^^^^^^^^^",
"^^^^^^^^^^^^^^^^^^^^^X%%ozkkkfdddteeeeeeeeeeeeeeeeeeeeeeeeetdddfkkjco%%X^^^^^^^^^^^^^^^^^^^^^^^^",
"^^^^^^^^^^^^^^^^^   &mbnbxkkkr666rxfffffffffffffffffffffffxr666ekkkxbnbm-   ^^^^^^^^^^^^^^^^^^^^",
"^^^^^^^^^^^^^^^^F   *cjjjkkkkr777rkkkkkjkkkkkkkkkkkkkkkkkkkr777ekkkkkjjx;   Z^^^^^^^^^^^^^^^^^^^",
"^^^^^^^^^^^^^^^^F   *ckkkkkkkr777rkkkkjjjjjjjjjjjjkkkkkkkkkr777ekjjjkkkc;   A^^^^^^^^^^^^^^^^^^^",
"^^^^^^^^^^^^^^^^F   *ckkkkffxr666rkkkxvvvvvvvvvvvvckkkkkkkxr666rvvvvkkkc;   A^^^^^^^^^^^^^^^^^^^",
"^^^^^^^^^^^^^^^^F   *cjkkewwwyffffkkkcREEEEEEEEEEEUkkkkkkkkfdfdnEEERzkkc;   A^^^^^^^^^^^^^^^^^^^",
"^^^^^^^^^^^^^^^^F   *ckkk6776ykkkkkkkcQ~~~~~~~~~~~ExjkkkkkkkkjjN!~~Qzkkc;   A^^^^^^^^^^^^^^^^^^^",
"^^^^^^^^^^^^^^^^F   *cjjk6777ykkkkkkkvQ~~~~~~~~~~~ExkkkkkkkkkkjN!~~Qzjjc;   A^^^^^^^^^^^^^^^^^^^",
"^^^^^^^^^^^^^^^^F   *ckkx6666ykjkkkkkvQ~~~!QQQQQQ!RfkkkjxkkkkkjNQQQWzzzc-   V^^^^^^^^^^^^^^^^^^^",
"^^^^^^^^^^^^^5550uuuqrrrrttyyfkkkkkkjvQ!~!YPIPIPPPNrrrrfjkkkkkjvIPPPUUUUauuu05V5^^^^^^^^^^^^^^^^",
"^^^^^^^^^^^^^   ulxxd6766fkkkkkkkkkkjcQ~~!Nkkkkkkkd6666fkkkkkkkkkkkzQ!!!Nxxci   ^^^^^^^^^^^^^^^^",
"^^^^^^^^^^^^>   ulkkd6776fkkkkkkkkkkjcQ~~!njkkkkkkd6776fkkkjjkkkkkjzQ~~!Njkli   +^^^^^^^^^^^^^^^",
"^^^^^^^^^^^^>   ulkkd6776fkjkkfkkkfkkvQ~~!Njkkkkkkd6776fkfkkkkkkkkkzQ~~!Njkli   O^^^^^^^^^^^^^^^",
"^^^^^^^^^^^^>   ulkkd6776fkkknINNININP!~~!NjkjjkkkfrrrrmINNvjkkkkkkzQ~~!Njkli   +^^^^^^^^^^^^^^^",
"^^^^^^^^^^^^>   ulkkd6776fkkkUQQQQQQQQ~~~!NjkkkkkkjkffxEQQQIjkkjkkkzQ~~!Njkli   +^^^^^^^^^^^^^^^",
"^^^^^^^^^^^^,   ulkkd6776fkkkT~~~~~~~~~~~!NjkkkkkkkkkkzW~~!PjkkkkkkzQ~~!Njkli   +^^^^^^^^^^^^^^^",
"^^^^^^^^^^^^>   ulkkd6776fkkkT~~~~~~~~~~~!NjkkkkkkkkkkzW~~!PjkkkkjkzQ~~!Njkli   +^^^^^^^^^^^^^^^",
"^^^^^^^^^^^^>   ulkkd6776fkkkT~~~QEEEEEEEEnjkkkkkkkkkkxTEEENffffkkkzQ~~!Njkli   +^^^^^^^^^^^^^^^",
"^^^^^^^^^^^^$   ulkkd6776fkkkT~~~Rvvvvvvvvxkkkkkkkkkkkkvvvvr666rkkkzQ~~!Njkli   +^^^^^^^^^^^^^^^",
"^^^^^^^^^^^^>   ulkkd6776fkkkT~~~Tkjkkkkkkkkkkkkkkkkkkkkkkkr777ekkkzQ~~!Njkli   +^^^^^^^^^^^^^^^",
"^^^^^^^^^^^^#   ulkkd6776fkkkT~~~Tkkkkkkkkkkkkkkkkkkkkkkkkkr777ekkkzQ~~!Njkli   +^^^^^^^^^^^^^^^",
"^^^^^^^^^^^^#   ulkkd6776fkkkT~~~Tkkkkkkkjkkkkkkkkkkkkkkkkkr777ekkkzQ~~!Njkli   +^^^^^^^^^^^^^^^",
"^^^^^^^^^^^^#   ulkkd6776fkkkT~~~Tkkkjkkkjjkkkkkkkkkkkkkkkkr777ekkkzQ~~!Njkli   +^^^^^^^^^^^^^^^",
"^^^^^^^^^^^^#   ulkkd6776fkkkT~~~Tkkkkkkkkkkkkkkkkjkkkkkkkkr777ekkkzQ~~!Njkli   +^^^^^^^^^^^^^^^",
"^^^^^^^^^^^^#   ulkkd6776fkkkT~~~Tkkkkkkkkkkkkkkkkkkkkkkkkkr777ekkkzQ~~!Njkli   +^^^^^^^^^^^^^^^",
"^^^^^^^^^^^^@   ulkkd6776fkkkT!!!Tkkkkkkkkkkkkkkkkkkkkkkkkxr777elkkzQ~~!Njkli   +^^^^^^^^^^^^^^^",
"^^^^^^^^^^^^#   ulkkd6776fkkkNUUUmtttykjkkkkkkkkkkftttttttte777ekkkzQ~~!Njkli   +^^^^^^^^^^^^^^^",
"^^^^^^^^^^^^#   ulkkd6776fkkkxzzxy6666xkkkkkkkkkkkd666666667777ekkkzQ~~!Njkli   +^^^^^^^^^^^^^^^",
"^^^^^^^^^^^^#   ulkkd6776fkkkkkkky6776xkkkkkkkkkkkd677777777777ekkkzQ~~!Njkli   +^^^^^^^^^^^^^^^",
"^^^^^^^^^^^^#   ulkkd6776fkkkkkkky6776kkkkkkkkkkkkd677777777777ekkkzQ~~!Njkli   +^^^^^^^^^^^^^^^",
"^^^^^^^^^^^^>   ulkkd6776fkkkjkkkdweeenmmmckkkkkjkd6777weeeeeewrkkkzQ~~!Njkli   +^^^^^^^^^^^^^^^",
"^^^^^^^^^^^^>   ulkkd6776fkkkkkkkkfffcEWWEnjkkkkkkd6776ffffffffkkkkzQ~~!Njkli   O^^^^^^^^^^^^^^^",
"^^^^^^^^^^^^,   ulkkd6776fkkkkkkkkkkjvQ~~!Njkkkkkkd6776fkkkkkkkkkkkzQ~~!Njkli   +^^^^^^^^^^^^^^^",
"^^^^^^^^^^^^^   uljjd6776fkkkkkkkkkkkvQ~~!Njkkkkkkd6776fkkkkkkkkjjjzQ~~!Njjli   ^^^^^^^^^^^^^^^^",
"^^^^^^^^^^^^^   9nnnh6666ffffkkkkkkkkcEWWEnffffffxd6776fkkkkkkkzvvvvEWWEPnnnu   ^^^^^^^^^^^^^^^^",
"^^^^^^^^^^^^^^^^p.oo=fdffewwwdkkkkkkkxnmnnrwwwwwwww7776fkkkkkkjnEERRmmnN:oo.p^^^^^^^^^^^^^^^^^^^",
"^^^^^^^^^^^^^^^^F   *ckkx6776ykkkkkkkkkkkke777777777776fkkkkkjjN!~~Qzkkc;   V^^^^^^^^^^^^^^^^^^^",
"^^^^^^^^^^^^^^^^A   *ckkx6777ykkkkjkkkkkkke777777777776fkjkkkkjN!~~Qzkjc;   V^^^^^^^^^^^^^^^^^^^",
"^^^^^^^^^^^^^^^^A   *cjkx6666yzzzxkkkkkkkke666666666666fkkkxzzzNQQQWzkkc;   V^^^^^^^^^^^^^^^^^^^",
"^^^^^^^^^^^^^^^^Z   *cjkkytttNUUUNkkkkkkkkyttttttttttttfkkjNUUUUPPIIxkkc;   V^^^^^^^^^^^^^^^^^^^",
"^^^^^^^^^^^^^^^^^   *cjkkkkkkT!!!TkkkjkkkkkkkkkkkkkkkkkkkkkU!!!Rxkkkjkkc;   C^^^^^^^^^^^^^^^^^^^",
"^^^^^^^^^^^^^^^^^   *cjkkkkkkT~~~TkkkkkkkkkkkkkkkkkkkkkkkkkT~~~Rkkkkkkjc;   A^^^^^^^^^^^^^^^^^^^",
"^^^^^^^^^^^^^^^^^   *cxxxkkkkT~!!TkkkkkfkkkkkkkkkkkkkkkkkkkT~!!Rkkkkxxxc;   C^^^^^^^^^^^^^^^^^^^",
"^^^^^^^^^^^^^^^^^^432assszkkkITTTUNNNNNNNNNNNNNNNNNNNNNNNNNUTTTIkkkxsssa2331^^^^^^^^^^^^^^^^^^^^",
"^^^^^^^^^^^^^^^^^^^^^    vkkkzzzzIQQQQQQQQQQQQQQQQQQQQQQQQQPzzzzkkjc    ^^^^^^^^^^^^^^^^^^^^^^^^",
"^^^^^^^^^^^^^^^^^^^^^    gjkkkkjjN!~~~~~~~~~~~~~~~~~~~~~~~!Pjjkkkkjv    ^^^^^^^^^^^^^^^^^^^^^^^^",
"^^^^^^^^^^^^^^^^^^^^^    vjjjkkjjN!~~~~~~~~~~~~~~~~~~~~~~~!Pjjjjjjjv    ^^^^^^^^^^^^^^^^^^^^^^^^",
"^^^^^^^^^^^^^^^^^^^^^^   MmmmmmmmPEEEEEEEEEEEEEEEEEEEEEEEEEUmmmmmmmM   ^^^^^^^^^^^^^^^^^^^^^^^^^",
"^^^^^^^^^^^^^^^^^^^^^^^^^        ;bvvvvbvbvbvvvvvvbvbvbvvvb:        ^^^^^^^^^^^^^^^^^^^^^^^^^^^^",
"^^^^^^^^^^^^^^^^^^^^^^^^^        :xjkkkkkkkkkkkkkkkkkkkkkjx8        ^^^^^^^^^^^^^^^^^^^^^^^^^^^^",
"^^^^^^^^^^^^^^^^^^^^^^^^^        :xjjjjjjjjjjjjjjjjjjjjjjjl8        ^^^^^^^^^^^^^^^^^^^^^^^^^^^^",
"^^^^^^^^^^^^^^^^^^^^^^^^^^       ;bvvvvvvvvvvvvvvvvvvvvvvvv:       ^^^^^^^^^^^^^^^^^^^^^^^^^^^^^",
"^^^^^^^^^^^^^^^^^^^^^^^^^^^^^^^^^^*------------------------H^^^^^^^^^^^^^^^^^^^^^^^^^^^^^^^^^^^^",
"^^^^^^^^^^^^^^^^^^^^^^^^^^^^^^^^^^                         J^^^^^^^^^^^^^^^^^^^^^^^^^^^^^^^^^^^^",
"^^^^^^^^^^^^^^^^^^^^^^^^^^^^^^^^^^                         J^^^^^^^^^^^^^^^^^^^^^^^^^^^^^^^^^^^^",
"^^^^^^^^^^^^^^^^^^^^^^^^^^^^^^^^^^                         ^^^^^^^^^^^^^^^^^^^^^^^^^^^^^^^^^^^^^",
"^^^^^^^^^^^^^^^^^^^^^^^^^^^^^^^^^^VVVVVVVBVVSGFDD^^^^^^^^^^^^^^^^^^^^^^^^^^^^^^^^^^^^^^^^^^^^^^^",
"^^^^^^^^^^^^^^^^^^^^^^^^^^^^^^^^^^^^^^^^^^^^^^^^^^^^^^^^^^^^^^^^^^^^^^^^^^^^^^^^^^^^^^^^^^^^^^^^",
"^^^^^^^^^^^^^^^^^^^^^^^^^^^^^^^^^^^^^^^^^^^^^^^^^^^^^^^^^^^^^^^^^^^^^^^^^^^^^^^^^^^^^^^^^^^^^^^^",
"^^^^^^^^^^^^^^^^^^^^^^^^^^^^^^^^^^^^^^^^^^^^^^^^^^^^^^^^^^^^^^^^^^^^^^^^^^^^^^^^^^^^^^^^^^^^^^^^",
"^^^^^^^^^^^^^^^^^^^^^^^^^^^^^^^^^^^^^^^^^^^^^^^^^^^^^^^^^^^^^^^^^^^^^^^^^^^^^^^^^^^^^^^^^^^^^^^^",
"^^^^^^^^^^^^^^^^^^^^^^^^^^^^^^^^^^^^^^^^^^^^^^^^^^^^^^^^^^^^^^^^^^^^^^^^^^^^^^^^^^^^^^^^^^^^^^^^",
"^^^^^^^^^^^^^^^^^^^^^^^^^^^^^^^^^^^^^^^^^^^^^^^^^^^^^^^^^^^^^^^^^^^^^^^^^^^^^^^^^^^^^^^^^^^^^^^^",
"^^^^^^^^^^^^^^^^^^^^^^^^^^^^^^^^^^^^^^^^^^^^^^^^^^^^^^^^^^^^^^^^^^^^^^^^^^^^^^^^^^^^^^^^^^^^^^^^",
"^^^^^^^^^^^^^^^^^^^^^^^^^^^^^^^^^^^^^^^^^^^^^^^^^^^^^^^^^^^^^^^^^^^^^^^^^^^^^^^^^^^^^^^^^^^^^^^^",
"^^^^^^^^^^^^^^^^^^^^^^^^^^^^^^^^^^^^^^^^^^^^^^^^^^^^^^^^^^^^^^^^^^^^^^^^^^^^^^^^^^^^^^^^^^^^^^^^",
"^^^^^^^^^^^^^^^^^^^^^^^^^^^^^^^^^^^^^^^^^^^^^^^^^^^^^^^^^^^^^^^^^^^^^^^^^^^^^^^^^^^^^^^^^^^^^^^^",
"^^^^^^^^^^^^^^^^^^^^^^^^^^^^^^^^^^^^^^^^^^^^^^^^^^^^^^^^^^^^^^^^^^^^^^^^^^^^^^^^^^^^^^^^^^^^^^^^"
};
